<svg id="visual" viewBox="0 0 900 600" width="900" height="600" xmlns="http://www.w3.org/2000/svg" xmlns:xlink="http://www.w3.org/1999/xlink" version="1.1"><path d="M0 13L53 13L53 55L106 55L106 73L159 73L159 73L212 73L212 13L265 13L265 19L318 19L318 67L371 67L371 19L424 19L424 55L476 55L476 49L529 49L529 61L582 61L582 49L635 49L635 19L688 19L688 19L741 19L741 55L794 55L794 73L847 73L847 13L900 13L900 37L900 0L900 0L847 0L847 0L794 0L794 0L741 0L741 0L688 0L688 0L635 0L635 0L582 0L582 0L529 0L529 0L476 0L476 0L424 0L424 0L371 0L371 0L318 0L318 0L265 0L265 0L212 0L212 0L159 0L159 0L106 0L106 0L53 0L53 0L0 0Z" fill="#3383c5"></path><path d="M0 91L53 91L53 73L106 73L106 115L159 115L159 133L212 133L212 121L265 121L265 61L318 61L318 97L371 97L371 103L424 103L424 151L476 151L476 97L529 97L529 121L582 121L582 145L635 145L635 85L688 85L688 97L741 97L741 109L794 109L794 103L847 103L847 55L900 55L900 85L900 35L900 11L847 11L847 71L794 71L794 53L741 53L741 17L688 17L688 17L635 17L635 47L582 47L582 59L529 59L529 47L476 47L476 53L424 53L424 17L371 17L371 65L318 65L318 17L265 17L265 11L212 11L212 71L159 71L159 71L106 71L106 53L53 53L53 11L0 11Z" fill="#2e71b5"></path><path d="M0 133L53 133L53 97L106 97L106 181L159 181L159 211L212 211L212 145L265 145L265 91L318 91L318 187L371 187L371 151L424 151L424 193L476 193L476 157L529 157L529 217L582 217L582 169L635 169L635 151L688 151L688 163L741 163L741 151L794 151L794 121L847 121L847 157L900 157L900 139L900 83L900 53L847 53L847 101L794 101L794 107L741 107L741 95L688 95L688 83L635 83L635 143L582 143L582 119L529 119L529 95L476 95L476 149L424 149L424 101L371 101L371 95L318 95L318 59L265 59L265 119L212 119L212 131L159 131L159 113L106 113L106 71L53 71L53 89L0 89Z" fill="#2b5fa5"></path><path d="M0 271L53 271L53 151L106 151L106 301L159 301L159 247L212 247L212 283L265 283L265 223L318 223L318 277L371 277L371 229L424 229L424 325L476 325L476 283L529 283L529 253L582 253L582 265L635 265L635 253L688 253L688 187L741 187L741 205L794 205L794 229L847 229L847 223L900 223L900 271L900 137L900 155L847 155L847 119L794 119L794 149L741 149L741 161L688 161L688 149L635 149L635 167L582 167L582 215L529 215L529 155L476 155L476 191L424 191L424 149L371 149L371 185L318 185L318 89L265 89L265 143L212 143L212 209L159 209L159 179L106 179L106 95L53 95L53 131L0 131Z" fill="#2a4e94"></path><path d="M0 289L53 289L53 217L106 217L106 349L159 349L159 289L212 289L212 337L265 337L265 289L318 289L318 289L371 289L371 289L424 289L424 337L476 337L476 349L529 349L529 271L582 271L582 289L635 289L635 325L688 325L688 199L741 199L741 271L794 271L794 289L847 289L847 247L900 247L900 337L900 269L900 221L847 221L847 227L794 227L794 203L741 203L741 185L688 185L688 251L635 251L635 263L582 263L582 251L529 251L529 281L476 281L476 323L424 323L424 227L371 227L371 275L318 275L318 221L265 221L265 281L212 281L212 245L159 245L159 299L106 299L106 149L53 149L53 269L0 269Z" fill="#293d82"></path><path d="M0 457L53 457L53 307L106 307L106 427L159 427L159 427L212 427L212 385L265 385L265 373L318 373L318 469L371 469L371 487L424 487L424 439L476 439L476 511L529 511L529 373L582 373L582 373L635 373L635 439L688 439L688 355L741 355L741 361L794 361L794 349L847 349L847 487L900 487L900 493L900 335L900 245L847 245L847 287L794 287L794 269L741 269L741 197L688 197L688 323L635 323L635 287L582 287L582 269L529 269L529 347L476 347L476 335L424 335L424 287L371 287L371 287L318 287L318 287L265 287L265 335L212 335L212 287L159 287L159 347L106 347L106 215L53 215L53 287L0 287Z" fill="#272c71"></path><path d="M0 487L53 487L53 331L106 331L106 457L159 457L159 445L212 445L212 409L265 409L265 415L318 415L318 499L371 499L371 523L424 523L424 463L476 463L476 571L529 571L529 397L582 397L582 415L635 415L635 469L688 469L688 421L741 421L741 421L794 421L794 391L847 391L847 511L900 511L900 541L900 491L900 485L847 485L847 347L794 347L794 359L741 359L741 353L688 353L688 437L635 437L635 371L582 371L582 371L529 371L529 509L476 509L476 437L424 437L424 485L371 485L371 467L318 467L318 371L265 371L265 383L212 383L212 425L159 425L159 425L106 425L106 305L53 305L53 455L0 455Z" fill="#251a5e"></path><path d="M0 601L53 601L53 601L106 601L106 601L159 601L159 601L212 601L212 601L265 601L265 601L318 601L318 601L371 601L371 601L424 601L424 601L476 601L476 601L529 601L529 601L582 601L582 601L635 601L635 601L688 601L688 601L741 601L741 601L794 601L794 601L847 601L847 601L900 601L900 601L900 539L900 509L847 509L847 389L794 389L794 419L741 419L741 419L688 419L688 467L635 467L635 413L582 413L582 395L529 395L529 569L476 569L476 461L424 461L424 521L371 521L371 497L318 497L318 413L265 413L265 407L212 407L212 443L159 443L159 455L106 455L106 329L53 329L53 485L0 485Z" fill="#22074c"></path></svg>